<svg xmlns="http://www.w3.org/2000/svg" width="1325" height="300" version="1.0" viewBox="0 0 993.75 225"><path fill="#edebe5" d="M80.878 88.044q-11.189.001-19.25 8.282-8.049 8.268-8.047 19.906-.002 11.846 8.047 20.125 8.061 8.283 19.25 8.281c3.57 0 6.961-.445 10.172-1.344q4.81-1.34 7.047-2.687l2.016-1.344 13.421 27.516q-1.565 1.125-4.359 2.812c-1.867 1.118-6.121 2.64-12.766 4.578q-9.955 2.907-21.359 2.907-25.282.001-44.406-17.782-19.125-17.793-19.125-42.625 0-25.044 19.125-43.046c12.75-12.008 27.55-18.016 44.406-18.016q11.403.002 21.031 2.687 9.621 2.674 13.64 5.36l3.813 2.687-13.421 27.063c-4.93-3.57-11.34-5.36-19.235-5.36m0 0"/><path fill="#edebe5" d="M119.427 160.076q-19.125-16.999-19.125-43.625c0-26.626 6.633-32.328 19.906-43.735q19.923-17.11 49.22-17.11c19.237 0 35.456 5.743 48.655 17.22q19.796 17.221 19.797 43.625c0 17.593-6.453 32.101-19.36 43.515q-19.345 17.11-49.093 17.11c-20.586 0-37.25-5.664-50-17m30.656-63.094q-7.72 7.61-7.718 19.469-.001 11.86 7.375 19.36 7.387 7.485 19.468 7.483 11.625.001 19.125-7.609 7.5-7.607 7.5-19.234-.001-11.859-7.718-19.47-7.722-7.606-18.907-7.608-11.407.002-19.125 7.609m0 0"/><path fill="#edebe5" d="M235.387 173.716V58.951h39.594v12.078h.453q15.436-15.422 32.875-15.422c5.664 0 11.297.746 16.891 2.234 5.594 1.493 10.96 3.805 16.11 6.938q7.716 4.687 12.53 13.312 4.813 8.614 4.813 20.016v75.61H319.06V108.84q0-8.952-5.718-15.656c-3.805-4.476-8.762-6.719-14.875-6.719q-8.942 0-16.22 6.938-7.265 6.94-7.265 15.437v64.875ZM391.27 58.95l27.968 62.423 27.954-62.422h46.984L432.66 173.716h-26.843L344.3 58.951Zm206.902 62.86h-83.219q0 12.094 7.828 17.906c5.219 3.875 10.883 5.813 17 5.813q9.608.002 15.203-2.563 5.59-2.577 12.75-10.187l28.64 14.312c-11.929 19.993-31.76 29.985-59.5 29.985q-25.957.001-44.53-17.782-18.563-17.794-18.563-42.843 0-25.06 18.563-42.953 18.574-17.89 44.53-17.891 27.282.002 44.392 15.766 17.123 15.768 17.125 45.078-.001 4.032-.22 5.36Zm-82.11-21.922h43.625q-1.346-8.934-7.046-13.75-5.705-4.811-14.657-4.812-9.843 0-15.656 5.156-5.813 5.144-6.266 13.406m0 0"/><path fill="#edebe5" d="M595.895 173.716V58.951h39.593v16.562h.454q.435-.889 1.437-2.234 1.013-1.341 4.375-4.703a54.3 54.3 0 0 1 7.156-6.032q3.809-2.684 9.844-4.812c4.031-1.414 8.133-2.125 12.313-2.125 4.32 0 8.566.602 12.734 1.797q6.264 1.781 9.187 3.562l3.125 1.797-16.546 33.547q-7.394-6.265-20.594-6.266-7.16 0-12.297 3.141-5.145 3.128-7.266 7.61-2.129 4.469-3.03 7.609-.892 3.127-.892 4.906v60.406Zm0 0"/><path fill="#edebe5" d="m797.197 58.95-56.813 84.563h52.344v30.203H673.947l56.812-84.562h-47.422V58.95Zm0 0"/><path fill="#edebe5" d="M798.51 159.513q-16.11-17.561-16.109-43.062-.001-25.5 16.11-43.172 16.107-17.672 40.937-17.672 22.812.002 37.578 14.312V58.951h39.594v114.765h-39.14v-12.968h-.454q-14.765 16.328-37.578 16.328-24.83.002-40.937-17.563Zm33.673-62.531q-7.722 7.61-7.72 19.469 0 11.86 7.376 19.36 7.388 7.485 19.469 7.483 11.625.001 19.125-7.609 7.5-7.607 7.5-19.234-.001-11.859-7.72-19.47-7.72-7.606-18.905-7.608-11.408.002-19.125 7.609m115.724 28.859q10.734 0 18.234 7.5 7.5 7.488 7.5 18.235 0 10.516-7.5 18.015-7.5 7.484-18.234 7.485-10.517 0-18.016-7.485-7.486-7.5-7.484-18.015-.002-10.746 7.484-18.235 7.499-7.5 18.016-7.5m0 0"/></svg>