<svg xmlns="http://www.w3.org/2000/svg" width="25" height="24" fill="none"><path fill="#692EDC" d="M16.69 2H8.31C4.67 2 2.5 4.17 2.5 7.81v8.37C2.5 19.83 4.67 22 8.31 22h8.37c3.64 0 5.81-2.17 5.81-5.81V7.81C22.5 4.17 20.33 2 16.69 2M8.13 18.15c0 .41-.34.75-.75.75s-.75-.34-.75-.75v-2.07c0-.41.34-.75.75-.75s.75.34.75.75zm5.12 0c0 .41-.34.75-.75.75s-.75-.34-.75-.75V14c0-.41.34-.75.75-.75s.75.34.75.75zm5.12 0c0 .41-.34.75-.75.75s-.75-.34-.75-.75v-6.22c0-.41.34-.75.75-.75s.75.34.75.75zm0-9.38c0 .41-.34.75-.75.75s-.75-.34-.75-.75V7.8a19.53 19.53 0 0 1-9.31 5.36c-.06.02-.12.02-.18.02-.34 0-.64-.23-.73-.57-.1-.4.14-.81.55-.91a18.07 18.07 0 0 0 8.75-5.11H14.7c-.41 0-.75-.34-.75-.75s.34-.75.75-.75h2.93c.04 0 .07.02.11.02.05.01.1.01.15.03s.09.05.14.08c.03.02.06.03.09.05.01.01.01.02.02.02.04.04.07.08.1.12s.06.07.07.11c.02.04.02.08.03.13s.03.1.03.16c0 .01.01.02.01.03v2.93z"/></svg>