<svg xmlns="http://www.w3.org/2000/svg" width="25" height="25" fill="none"><path fill="#692EDC" d="M20.5 14.75a2.25 2.25 0 1 0 0-4.5 2.25 2.25 0 0 0 0 4.5m0-8a2.25 2.25 0 1 0 0-4.5 2.25 2.25 0 0 0 0 4.5m0 16a2.25 2.25 0 1 0 0-4.5 2.25 2.25 0 0 0 0 4.5m-16-8a2.25 2.25 0 1 0 0-4.5 2.25 2.25 0 0 0 0 4.5"/><path fill="#692EDC" d="M19.5 13.25c.41 0 .75-.34.75-.75s-.34-.75-.75-.75h-7.25V7.5c0-1.58.67-2.25 2.25-2.25h5c.41 0 .75-.34.75-.75s-.34-.75-.75-.75h-5c-2.42 0-3.75 1.33-3.75 3.75v4.25H5.5c-.41 0-.75.34-.75.75s.34.75.75.75h5.25v4.25c0 2.42 1.33 3.75 3.75 3.75h5c.41 0 .75-.34.75-.75s-.34-.75-.75-.75h-5c-1.58 0-2.25-.67-2.25-2.25v-4.25z"/></svg>